<?xml version="1.0" encoding="UTF-8" standalone="no"?>
<svg
   xmlns:dc="http://purl.org/dc/elements/1.1/"
   xmlns:cc="http://creativecommons.org/ns#"
   xmlns:rdf="http://www.w3.org/1999/02/22-rdf-syntax-ns#"
   xmlns:svg="http://www.w3.org/2000/svg"
   xmlns="http://www.w3.org/2000/svg"
   style="shape-rendering:crispEdges"
   id="svg8"
   version="1.1"
   viewBox="0 0 111.38958 55.827084"
   height="55.827084"
   width="111.38958">
  <defs
     id="defs2" />
  <metadata
     id="metadata5">
    <rdf:RDF>
      <cc:Work
         rdf:about="">
        <dc:format>image/svg+xml</dc:format>
        <dc:type
           rdf:resource="http://purl.org/dc/dcmitype/StillImage" />
        <dc:title></dc:title>
      </cc:Work>
    </rdf:RDF>
  </metadata>
  <g
     transform="translate(0.21601066,-220.22173)"
     id="layer1">
    <path
       d="m 13.145448,233.58318 h 10.583333 v 10.58333 H 13.145448 Z m 18.520833,0 h 10.583333 v 10.58333 H 31.666281 Z m 18.520834,0 h 10.583333 v 10.58333 H 50.187115 Z m 18.520832,0 H 79.29128 v 10.58333 H 68.707947 Z m 18.520836,0 h 10.583333 v 10.58333 H 87.228783 Z m -74.083335,18.52084 h 10.583333 v 10.58333 H 13.145448 Z m 18.520833,0 h 10.583333 v 10.58333 H 31.666281 Z m 18.520834,0 h 10.583333 v 10.58333 H 50.187115 Z m 18.520832,0 H 79.29128 v 10.58333 H 68.707947 Z m 18.520836,0 h 10.583333 v 10.58333 H 87.228783 Z M 42.249614,225.64568 v -5.29166 0 H -0.083719 v 55.5625 H 111.04128 v -55.5625 H 68.707947 v 7.9375 h 34.395833 v 39.6875 H 7.8537809 v -39.6875 H 42.249614 Z"
       style="fill:none;stroke:#000000;stroke-width:0.26458332px;stroke-linecap:butt;stroke-linejoin:miter;stroke-opacity:1"
       id="path4740" />
  </g>
</svg>
